%FSLAX23Y23*%
%MOIN*%
G70*
G01*
G75*
%ADD10C,0.008*%
%ADD11R,0.043X0.039*%
%ADD12R,0.039X0.043*%
%ADD13R,0.039X0.043*%
%ADD14R,0.063X0.071*%
%ADD15R,0.063X0.071*%
%ADD16R,0.016X0.085*%
%ADD17R,0.051X0.059*%
%ADD18R,0.051X0.059*%
%ADD19R,0.057X0.022*%
%ADD20R,0.057X0.022*%
%ADD21R,0.020X0.091*%
%ADD22R,0.012X0.063*%
%ADD23R,0.063X0.012*%
%ADD24R,0.059X0.051*%
%ADD25R,0.016X0.085*%
%ADD26R,0.043X0.142*%
%ADD27R,0.043X0.177*%
%ADD28R,0.043X0.157*%
%ADD29R,0.043X0.118*%
%ADD30R,0.012X0.063*%
%ADD31R,0.063X0.012*%
%ADD32R,0.043X0.039*%
%ADD33R,0.079X0.098*%
%ADD34R,0.020X0.091*%
%ADD35C,0.014*%
%ADD36C,0.010*%
%ADD37C,0.020*%
%ADD38C,0.012*%
%ADD39C,0.020*%
%ADD40C,0.011*%
%ADD41C,0.100*%
%ADD42C,0.024*%
%ADD43C,0.020*%
%ADD44C,0.059*%
%ADD45C,0.010*%
%ADD46C,0.008*%
%ADD47C,0.007*%
%ADD48R,0.051X0.047*%
%ADD49R,0.047X0.051*%
%ADD50R,0.047X0.051*%
%ADD51R,0.071X0.079*%
%ADD52R,0.071X0.079*%
%ADD53R,0.024X0.093*%
%ADD54R,0.059X0.067*%
%ADD55R,0.059X0.067*%
%ADD56R,0.065X0.030*%
%ADD57R,0.065X0.030*%
%ADD58R,0.028X0.099*%
%ADD59R,0.020X0.071*%
%ADD60R,0.071X0.020*%
%ADD61R,0.067X0.059*%
%ADD62R,0.024X0.093*%
%ADD63R,0.051X0.150*%
%ADD64R,0.051X0.185*%
%ADD65R,0.051X0.165*%
%ADD66R,0.051X0.126*%
%ADD67R,0.020X0.071*%
%ADD68R,0.071X0.020*%
%ADD69R,0.051X0.047*%
%ADD70R,0.087X0.106*%
%ADD71R,0.028X0.099*%
%ADD72C,0.108*%
%ADD73C,0.032*%
%ADD74C,0.028*%
%ADD75C,0.067*%
%ADD76C,0.004*%
%ADD77C,0.006*%
%ADD78C,0.001*%
%ADD79C,0.007*%
D78*
X2535Y3590D02*
X2635D01*
X2585Y3540D02*
Y3640D01*
X2994Y4863D02*
X3029D01*
X3012Y4846D02*
Y4881D01*
X2821Y4863D02*
X2856D01*
X2838Y4846D02*
Y4881D01*
X2599Y4185D02*
X2611D01*
X2605Y4179D02*
Y4191D01*
X2269Y3905D02*
X2281D01*
X2275Y3899D02*
Y3911D01*
X2395Y3905D02*
X2407D01*
X2401Y3899D02*
Y3911D01*
X2599Y4040D02*
X2611D01*
X2605Y4034D02*
Y4046D01*
X2569Y3985D02*
X2581D01*
X2575Y3979D02*
Y3991D01*
X2634Y3900D02*
X2646D01*
X2640Y3894D02*
Y3906D01*
X2589Y3900D02*
X2601D01*
X2595Y3894D02*
Y3906D01*
X2354Y4175D02*
X2366D01*
X2360Y4169D02*
Y4181D01*
X2354Y4230D02*
X2366D01*
X2360Y4224D02*
Y4236D01*
X2612Y4339D02*
X2624D01*
X2618Y4333D02*
Y4345D01*
X2534Y4260D02*
X2546D01*
X2540Y4254D02*
Y4266D01*
X2691Y4320D02*
X2702D01*
X2697Y4314D02*
Y4326D01*
X2415Y4260D02*
X2427D01*
X2421Y4254D02*
Y4266D01*
X2599Y4140D02*
X2611D01*
X2605Y4134D02*
Y4146D01*
X2764Y4550D02*
X2776D01*
X2770Y4544D02*
Y4556D01*
X2689Y4140D02*
X2701D01*
X2695Y4134D02*
Y4146D01*
X2914Y4138D02*
X2926D01*
X2920Y4133D02*
Y4144D01*
X2415Y4339D02*
X2427D01*
X2421Y4333D02*
Y4345D01*
X2299Y4335D02*
X2311D01*
X2305Y4329D02*
Y4341D01*
X2264Y4305D02*
X2276D01*
X2270Y4299D02*
Y4311D01*
X2264Y4175D02*
X2276D01*
X2270Y4169D02*
Y4181D01*
X2264Y4130D02*
X2276D01*
X2270Y4124D02*
Y4136D01*
X3092Y3802D02*
X3104D01*
X3098Y3796D02*
Y3808D01*
X2919Y3943D02*
X2931D01*
X2925Y3937D02*
Y3949D01*
X2679Y3940D02*
X2691D01*
X2685Y3934D02*
Y3946D01*
X2599Y4230D02*
X2611D01*
X2605Y4224D02*
Y4236D01*
X2924Y4293D02*
X2936D01*
X2930Y4287D02*
Y4299D01*
X2924Y4560D02*
X2936D01*
X2930Y4554D02*
Y4566D01*
X3009Y3980D02*
X3021D01*
X3015Y3974D02*
Y3986D01*
X3094Y4075D02*
X3106D01*
X3100Y4069D02*
Y4081D01*
X3014Y4330D02*
X3026D01*
X3020Y4324D02*
Y4336D01*
X3089Y4420D02*
X3101D01*
X3095Y4414D02*
Y4426D01*
X2465Y4811D02*
X2477D01*
X2471Y4805D02*
Y4817D01*
X3059Y4150D02*
X3071D01*
X3065Y4144D02*
Y4156D01*
X2174Y4545D02*
X2186D01*
X2180Y4539D02*
Y4551D01*
X2424Y4550D02*
X2436D01*
X2430Y4544D02*
Y4556D01*
X2487Y3700D02*
X2498D01*
X2493Y3694D02*
Y3706D01*
X2768Y3700D02*
X2779D01*
X2773Y3694D02*
Y3706D01*
X2034Y4213D02*
X2046D01*
X2040Y4208D02*
Y4219D01*
X2034Y4007D02*
X2046D01*
X2040Y4001D02*
Y4012D01*
X2395Y4485D02*
X2407D01*
X2401Y4479D02*
Y4491D01*
X2274Y3225D02*
X2286D01*
X2280Y3219D02*
Y3231D01*
X2880Y3195D02*
X2892D01*
X2886Y3189D02*
Y3201D01*
X2825Y3389D02*
X2837D01*
X2831Y3383D02*
Y3395D01*
X2384Y3389D02*
X2396D01*
X2390Y3383D02*
Y3395D01*
X2354Y4990D02*
X2366D01*
X2360Y4984D02*
Y4996D01*
X2654Y4990D02*
X2666D01*
X2660Y4984D02*
Y4996D01*
X2814Y4740D02*
X2826D01*
X2820Y4734D02*
Y4746D01*
X2814Y4790D02*
X2826D01*
X2820Y4784D02*
Y4796D01*
X3024Y4790D02*
X3036D01*
X3030Y4784D02*
Y4796D01*
X3024Y4740D02*
X3036D01*
X3030Y4734D02*
Y4746D01*
X2829Y4985D02*
X2841D01*
X2835Y4979D02*
Y4991D01*
X3094Y4875D02*
X3106D01*
X3100Y4869D02*
Y4881D01*
X2919Y4985D02*
X2931D01*
X2925Y4979D02*
Y4991D01*
X2344Y4800D02*
X2356D01*
X2350Y4794D02*
Y4806D01*
X2304Y4800D02*
X2316D01*
X2310Y4794D02*
Y4806D01*
X2509Y4810D02*
X2521D01*
X2515Y4804D02*
Y4816D01*
X3052Y4488D02*
X3064D01*
X3058Y4482D02*
Y4494D01*
X2654Y4600D02*
X2666D01*
X2660Y4594D02*
Y4606D01*
X2694Y4600D02*
X2706D01*
X2700Y4594D02*
Y4606D01*
X2734Y4600D02*
X2746D01*
X2740Y4594D02*
Y4606D01*
X2774Y4600D02*
X2786D01*
X2780Y4594D02*
Y4606D01*
X2819Y4600D02*
X2831D01*
X2825Y4594D02*
Y4606D01*
X2869Y4600D02*
X2881D01*
X2875Y4594D02*
Y4606D01*
X2149Y4950D02*
X2161D01*
X2155Y4944D02*
Y4956D01*
M02*
