%FSLAX23Y23*%
%MOIN*%
G70*
G01*
G75*
%ADD10C,0.008*%
%ADD11R,0.043X0.039*%
%ADD12R,0.039X0.043*%
%ADD13R,0.039X0.043*%
%ADD14R,0.063X0.071*%
%ADD15R,0.063X0.071*%
%ADD16R,0.016X0.085*%
%ADD17R,0.051X0.059*%
%ADD18R,0.051X0.059*%
%ADD19R,0.057X0.022*%
%ADD20R,0.057X0.022*%
%ADD21R,0.020X0.091*%
%ADD22R,0.012X0.063*%
%ADD23R,0.063X0.012*%
%ADD24R,0.059X0.051*%
%ADD25R,0.016X0.085*%
%ADD26R,0.043X0.142*%
%ADD27R,0.043X0.177*%
%ADD28R,0.043X0.157*%
%ADD29R,0.043X0.118*%
%ADD30R,0.012X0.063*%
%ADD31R,0.063X0.012*%
%ADD32R,0.043X0.039*%
%ADD33R,0.079X0.098*%
%ADD34R,0.020X0.091*%
%ADD35C,0.014*%
%ADD36C,0.010*%
%ADD37C,0.020*%
%ADD38C,0.012*%
%ADD39C,0.020*%
%ADD40C,0.011*%
%ADD41C,0.100*%
%ADD42C,0.024*%
%ADD43C,0.020*%
%ADD44C,0.059*%
%ADD45C,0.010*%
%ADD46C,0.008*%
%ADD47C,0.007*%
D45*
X3077Y3915D02*
G03*
X3077Y3915I-5J0D01*
G01*
Y4265D02*
G03*
X3077Y4265I-5J0D01*
G01*
X2242Y4628D02*
G03*
X2242Y4628I-5J0D01*
G01*
X2221Y3821D02*
G03*
X2221Y3821I-5J0D01*
G01*
X2993Y4694D02*
G03*
X2993Y4694I-5J0D01*
G01*
D46*
X2226Y4733D02*
G03*
X2226Y4781I0J24D01*
G01*
Y4686D02*
Y4733D01*
Y4781D02*
Y4828D01*
X2640Y4686D02*
Y4828D01*
X2226Y4686D02*
X2640D01*
X2226Y4828D02*
X2640D01*
X2732Y3868D02*
Y4372D01*
X2228Y3868D02*
Y4372D01*
Y3868D02*
X2732D01*
X2228Y4372D02*
X2732D01*
X2730Y5098D02*
X3120D01*
X2730Y5046D02*
Y5098D01*
Y4830D02*
Y4916D01*
X3120Y4830D02*
Y4916D01*
Y5046D02*
Y5098D01*
X2805Y4720D02*
X2836D01*
X3014D02*
X3045D01*
D47*
X3090Y4503D02*
X3110D01*
X3100Y4513D02*
Y4493D01*
X2975Y3915D02*
X2995D01*
X2985Y3925D02*
Y3905D01*
X2940Y4265D02*
X2960D01*
X2950Y4275D02*
Y4255D01*
X2860Y4375D02*
Y4355D01*
X2870Y4345D01*
X2880Y4355D01*
Y4375D01*
X2890Y4370D02*
X2895Y4375D01*
X2905D01*
X2910Y4370D01*
Y4365D01*
X2905Y4360D01*
X2900D01*
X2905D01*
X2910Y4355D01*
Y4350D01*
X2905Y4345D01*
X2895D01*
X2890Y4350D01*
X2920Y4370D02*
X2925Y4375D01*
X2935D01*
X2940Y4370D01*
Y4365D01*
X2935Y4360D01*
X2930D01*
X2935D01*
X2940Y4355D01*
Y4350D01*
X2935Y4345D01*
X2925D01*
X2920Y4350D01*
X2860Y4025D02*
Y4005D01*
X2870Y3995D01*
X2880Y4005D01*
Y4025D01*
X2890Y3995D02*
X2900D01*
X2895D01*
Y4025D01*
X2890Y4020D01*
X2935Y4025D02*
X2915D01*
Y4010D01*
X2925Y4015D01*
X2930D01*
X2935Y4010D01*
Y4000D01*
X2930Y3995D01*
X2920D01*
X2915Y4000D01*
X2975Y4485D02*
X2970Y4490D01*
X2960D01*
X2955Y4485D01*
Y4465D01*
X2960Y4460D01*
X2970D01*
X2975Y4465D01*
X2985Y4460D02*
X2995D01*
X2990D01*
Y4490D01*
X2985Y4485D01*
X3010D02*
X3015Y4490D01*
X3025D01*
X3030Y4485D01*
Y4480D01*
X3025Y4475D01*
X3030Y4470D01*
Y4465D01*
X3025Y4460D01*
X3015D01*
X3010Y4465D01*
Y4470D01*
X3015Y4475D01*
X3010Y4480D01*
Y4485D01*
X3015Y4475D02*
X3025D01*
X3145Y4220D02*
X3150Y4225D01*
Y4235D01*
X3145Y4240D01*
X3125D01*
X3120Y4235D01*
Y4225D01*
X3125Y4220D01*
X3120Y4210D02*
Y4200D01*
Y4205D01*
X3150D01*
X3145Y4210D01*
X3150Y4185D02*
Y4165D01*
X3145D01*
X3125Y4185D01*
X3120D01*
X2990Y4140D02*
X2985Y4145D01*
X2975D01*
X2970Y4140D01*
Y4120D01*
X2975Y4115D01*
X2985D01*
X2990Y4120D01*
X3000Y4115D02*
X3010D01*
X3005D01*
Y4145D01*
X3000Y4140D01*
X3045Y4145D02*
X3035Y4140D01*
X3025Y4130D01*
Y4120D01*
X3030Y4115D01*
X3040D01*
X3045Y4120D01*
Y4125D01*
X3040Y4130D01*
X3025D01*
X2975Y3795D02*
X2970Y3800D01*
X2960D01*
X2955Y3795D01*
Y3775D01*
X2960Y3770D01*
X2970D01*
X2975Y3775D01*
X2985Y3770D02*
X2995D01*
X2990D01*
Y3800D01*
X2985Y3795D01*
X3030Y3800D02*
X3010D01*
Y3785D01*
X3020Y3790D01*
X3025D01*
X3030Y3785D01*
Y3775D01*
X3025Y3770D01*
X3015D01*
X3010Y3775D01*
X2865Y4215D02*
X2860Y4220D01*
X2850D01*
X2845Y4215D01*
Y4195D01*
X2850Y4190D01*
X2860D01*
X2865Y4195D01*
X2875Y4220D02*
X2895D01*
Y4215D01*
X2875Y4195D01*
Y4190D01*
X2630Y4515D02*
X2625Y4520D01*
X2615D01*
X2610Y4515D01*
Y4495D01*
X2615Y4490D01*
X2625D01*
X2630Y4495D01*
X2660Y4490D02*
X2640D01*
X2660Y4510D01*
Y4515D01*
X2655Y4520D01*
X2645D01*
X2640Y4515D01*
X2202Y4970D02*
Y5000D01*
X2217D01*
X2222Y4995D01*
Y4985D01*
X2217Y4980D01*
X2202D01*
X2212D02*
X2222Y4970D01*
X2232D02*
X2242D01*
X2237D01*
Y5000D01*
X2232Y4995D01*
X2130Y4900D02*
Y4870D01*
X2150D01*
X2180Y4900D02*
X2160D01*
Y4870D01*
X2180D01*
X2160Y4885D02*
X2170D01*
X2190Y4900D02*
Y4870D01*
X2205D01*
X2210Y4875D01*
Y4895D01*
X2205Y4900D01*
X2190D01*
X2640Y4660D02*
Y4635D01*
X2645Y4630D01*
X2655D01*
X2660Y4635D01*
Y4660D01*
X2690Y4630D02*
X2670D01*
X2690Y4650D01*
Y4655D01*
X2685Y4660D01*
X2675D01*
X2670Y4655D01*
X2130Y3840D02*
Y3815D01*
X2135Y3810D01*
X2145D01*
X2150Y3815D01*
Y3840D01*
X2160Y3810D02*
X2170D01*
X2165D01*
Y3840D01*
X2160Y3835D01*
X2925Y4665D02*
Y4635D01*
X2945D01*
X2955D02*
X2965D01*
X2960D01*
Y4665D01*
X2955Y4660D01*
X2875Y4550D02*
X2870Y4555D01*
X2860D01*
X2855Y4550D01*
Y4530D01*
X2860Y4525D01*
X2870D01*
X2875Y4530D01*
X2885Y4525D02*
X2895D01*
X2890D01*
Y4555D01*
X2885Y4550D01*
X2925Y4525D02*
Y4555D01*
X2910Y4540D01*
X2930D01*
X2405Y5050D02*
X2400Y5055D01*
X2390D01*
X2385Y5050D01*
Y5030D01*
X2390Y5025D01*
X2400D01*
X2405Y5030D01*
X2415Y5025D02*
X2425D01*
X2420D01*
Y5055D01*
X2415Y5050D01*
X2440D02*
X2445Y5055D01*
X2455D01*
X2460Y5050D01*
Y5045D01*
X2455Y5040D01*
X2450D01*
X2455D01*
X2460Y5035D01*
Y5030D01*
X2455Y5025D01*
X2445D01*
X2440Y5030D01*
X2550Y5050D02*
X2545Y5055D01*
X2535D01*
X2530Y5050D01*
Y5030D01*
X2535Y5025D01*
X2545D01*
X2550Y5030D01*
X2560Y5025D02*
X2570D01*
X2565D01*
Y5055D01*
X2560Y5050D01*
X2605Y5025D02*
X2585D01*
X2605Y5045D01*
Y5050D01*
X2600Y5055D01*
X2590D01*
X2585Y5050D01*
X2090Y4595D02*
X2085Y4600D01*
X2075D01*
X2070Y4595D01*
Y4575D01*
X2075Y4570D01*
X2085D01*
X2090Y4575D01*
X2100Y4570D02*
X2110D01*
X2105D01*
Y4600D01*
X2100Y4595D01*
X2125Y4570D02*
X2135D01*
X2130D01*
Y4600D01*
X2125Y4595D01*
X2640Y3750D02*
X2635Y3755D01*
X2625D01*
X2620Y3750D01*
Y3730D01*
X2625Y3725D01*
X2635D01*
X2640Y3730D01*
X2650Y3725D02*
X2660D01*
X2655D01*
Y3755D01*
X2650Y3750D01*
X2100Y4425D02*
X2095Y4430D01*
X2085D01*
X2080Y4425D01*
Y4405D01*
X2085Y4400D01*
X2095D01*
X2100Y4405D01*
X2110Y4425D02*
X2115Y4430D01*
X2125D01*
X2130Y4425D01*
Y4420D01*
X2125Y4415D01*
X2120D01*
X2125D01*
X2130Y4410D01*
Y4405D01*
X2125Y4400D01*
X2115D01*
X2110Y4405D01*
X2086Y4294D02*
X2081Y4299D01*
X2071D01*
X2066Y4294D01*
Y4274D01*
X2071Y4269D01*
X2081D01*
X2086Y4274D01*
X2111Y4269D02*
Y4299D01*
X2096Y4284D01*
X2116D01*
X2410Y3755D02*
X2405Y3760D01*
X2395D01*
X2390Y3755D01*
Y3735D01*
X2395Y3730D01*
X2405D01*
X2410Y3735D01*
X2440Y3760D02*
X2420D01*
Y3745D01*
X2430Y3750D01*
X2435D01*
X2440Y3745D01*
Y3735D01*
X2435Y3730D01*
X2425D01*
X2420Y3735D01*
X2080Y3950D02*
X2075Y3955D01*
X2065D01*
X2060Y3950D01*
Y3930D01*
X2065Y3925D01*
X2075D01*
X2080Y3930D01*
X2090Y3950D02*
X2095Y3955D01*
X2105D01*
X2110Y3950D01*
Y3945D01*
X2105Y3940D01*
X2110Y3935D01*
Y3930D01*
X2105Y3925D01*
X2095D01*
X2090Y3930D01*
Y3935D01*
X2095Y3940D01*
X2090Y3945D01*
Y3950D01*
X2095Y3940D02*
X2105D01*
X2710Y4690D02*
Y4660D01*
X2725D01*
X2730Y4665D01*
Y4670D01*
X2725Y4675D01*
X2710D01*
X2725D01*
X2730Y4680D01*
Y4685D01*
X2725Y4690D01*
X2710D01*
X2740Y4675D02*
X2760D01*
X2770Y4690D02*
Y4665D01*
X2775Y4660D01*
X2785D01*
X2790Y4665D01*
Y4690D01*
X2820Y4685D02*
X2815Y4690D01*
X2805D01*
X2800Y4685D01*
Y4680D01*
X2805Y4675D01*
X2815D01*
X2820Y4670D01*
Y4665D01*
X2815Y4660D01*
X2805D01*
X2800Y4665D01*
X2830Y4690D02*
Y4660D01*
X2845D01*
X2850Y4665D01*
Y4670D01*
X2845Y4675D01*
X2830D01*
X2845D01*
X2850Y4680D01*
Y4685D01*
X2845Y4690D01*
X2830D01*
M02*
