%FSLAX23Y23*%
%MOIN*%
G70*
G01*
G75*
%ADD10C,0.008*%
%ADD11R,0.043X0.039*%
%ADD12R,0.039X0.043*%
%ADD13R,0.039X0.043*%
%ADD14R,0.063X0.071*%
%ADD15R,0.063X0.071*%
%ADD16R,0.016X0.085*%
%ADD17R,0.051X0.059*%
%ADD18R,0.051X0.059*%
%ADD19R,0.057X0.022*%
%ADD20R,0.057X0.022*%
%ADD21R,0.020X0.091*%
%ADD22R,0.012X0.063*%
%ADD23R,0.063X0.012*%
%ADD24R,0.059X0.051*%
%ADD25R,0.016X0.085*%
%ADD26R,0.043X0.142*%
%ADD27R,0.043X0.177*%
%ADD28R,0.043X0.157*%
%ADD29R,0.043X0.118*%
%ADD30R,0.012X0.063*%
%ADD31R,0.063X0.012*%
%ADD32R,0.043X0.039*%
%ADD33R,0.079X0.098*%
%ADD34R,0.020X0.091*%
%ADD35C,0.014*%
%ADD36C,0.010*%
%ADD37C,0.020*%
%ADD38C,0.012*%
%ADD39C,0.020*%
%ADD40C,0.011*%
%ADD41C,0.100*%
%ADD42C,0.024*%
%ADD43C,0.020*%
%ADD44C,0.059*%
%ADD45C,0.010*%
%ADD46C,0.008*%
%ADD47C,0.007*%
%ADD48R,0.051X0.047*%
%ADD49R,0.047X0.051*%
%ADD50R,0.047X0.051*%
%ADD51R,0.071X0.079*%
%ADD52R,0.071X0.079*%
%ADD53R,0.024X0.093*%
%ADD54R,0.059X0.067*%
%ADD55R,0.059X0.067*%
%ADD56R,0.065X0.030*%
%ADD57R,0.065X0.030*%
%ADD58R,0.028X0.099*%
%ADD59R,0.020X0.071*%
%ADD60R,0.071X0.020*%
%ADD61R,0.067X0.059*%
%ADD62R,0.024X0.093*%
%ADD63R,0.051X0.150*%
%ADD64R,0.051X0.185*%
%ADD65R,0.051X0.165*%
%ADD66R,0.051X0.126*%
%ADD67R,0.020X0.071*%
%ADD68R,0.071X0.020*%
%ADD69R,0.051X0.047*%
%ADD70R,0.087X0.106*%
%ADD71R,0.028X0.099*%
%ADD72C,0.108*%
%ADD73C,0.032*%
%ADD74C,0.028*%
%ADD75C,0.067*%
%ADD76C,0.004*%
%ADD77C,0.006*%
%ADD78C,0.001*%
D36*
X1590Y5070D02*
X1985D01*
X1590Y3551D02*
X1985D01*
X1600Y4581D02*
Y5070D01*
Y3551D02*
Y4009D01*
X1580Y5010D02*
X1600Y5070D01*
X1620Y5010D01*
X1600Y3551D02*
X1620Y3611D01*
X1580D02*
X1600Y3551D01*
X2945Y2720D02*
Y2985D01*
X2224Y2720D02*
Y2985D01*
X2850Y2730D02*
X2945D01*
X2224D02*
X2288D01*
X2885Y2750D02*
X2945Y2730D01*
X2885Y2710D02*
X2945Y2730D01*
X2224D02*
X2284Y2710D01*
X2224Y2730D02*
X2284Y2750D01*
D76*
X2730Y5070D02*
X3120D01*
D77*
X1586Y4025D02*
X1576Y4035D01*
Y4055D01*
X1586Y4065D01*
X1596D01*
X1606Y4055D01*
Y4045D01*
Y4055D01*
X1616Y4065D01*
X1626D01*
X1636Y4055D01*
Y4035D01*
X1626Y4025D01*
X1586Y4085D02*
X1576Y4095D01*
Y4115D01*
X1586Y4125D01*
X1596D01*
X1606Y4115D01*
X1616Y4125D01*
X1626D01*
X1636Y4115D01*
Y4095D01*
X1626Y4085D01*
X1616D01*
X1606Y4095D01*
X1596Y4085D01*
X1586D01*
X1606Y4095D02*
Y4115D01*
X1636Y4145D02*
X1626D01*
Y4155D01*
X1636D01*
Y4145D01*
X1576Y4235D02*
Y4195D01*
X1606D01*
X1596Y4215D01*
Y4225D01*
X1606Y4235D01*
X1626D01*
X1636Y4225D01*
Y4205D01*
X1626Y4195D01*
X1586Y4255D02*
X1576Y4265D01*
Y4285D01*
X1586Y4295D01*
X1596D01*
X1606Y4285D01*
X1616Y4295D01*
X1626D01*
X1636Y4285D01*
Y4265D01*
X1626Y4255D01*
X1616D01*
X1606Y4265D01*
X1596Y4255D01*
X1586D01*
X1606Y4265D02*
Y4285D01*
X1636Y4395D02*
X1616Y4375D01*
X1596D01*
X1576Y4395D01*
X1636Y4425D02*
X1596D01*
Y4435D01*
X1606Y4445D01*
X1636D01*
X1606D01*
X1596Y4455D01*
X1606Y4465D01*
X1636D01*
Y4485D02*
X1596D01*
Y4495D01*
X1606Y4505D01*
X1636D01*
X1606D01*
X1596Y4515D01*
X1606Y4525D01*
X1636D01*
Y4545D02*
X1616Y4565D01*
X1596D01*
X1576Y4545D01*
X2304Y2694D02*
X2324D01*
X2314D01*
Y2754D01*
X2304Y2744D01*
X2354D02*
X2364Y2754D01*
X2384D01*
X2394Y2744D01*
Y2734D01*
X2384Y2724D01*
X2394Y2714D01*
Y2704D01*
X2384Y2694D01*
X2364D01*
X2354Y2704D01*
Y2714D01*
X2364Y2724D01*
X2354Y2734D01*
Y2744D01*
X2364Y2724D02*
X2384D01*
X2414Y2694D02*
Y2704D01*
X2424D01*
Y2694D01*
X2414D01*
X2464Y2744D02*
X2474Y2754D01*
X2494D01*
X2504Y2744D01*
Y2734D01*
X2494Y2724D01*
X2484D01*
X2494D01*
X2504Y2714D01*
Y2704D01*
X2494Y2694D01*
X2474D01*
X2464Y2704D01*
X2524Y2744D02*
X2534Y2754D01*
X2554D01*
X2564Y2744D01*
Y2704D01*
X2554Y2694D01*
X2534D01*
X2524Y2704D01*
Y2744D01*
X2664Y2694D02*
X2644Y2714D01*
Y2734D01*
X2664Y2754D01*
X2694Y2694D02*
Y2734D01*
X2704D01*
X2714Y2724D01*
Y2694D01*
Y2724D01*
X2724Y2734D01*
X2734Y2724D01*
Y2694D01*
X2754D02*
Y2734D01*
X2764D01*
X2774Y2724D01*
Y2694D01*
Y2724D01*
X2784Y2734D01*
X2794Y2724D01*
Y2694D01*
X2814D02*
X2834Y2714D01*
Y2734D01*
X2814Y2754D01*
D78*
X3084Y5087D02*
Y5077D01*
X3079D01*
X3077Y5079D01*
Y5082D01*
X3079Y5084D01*
X3084D01*
X3068Y5079D02*
X3069Y5077D01*
X3072D01*
X3074Y5079D01*
Y5085D01*
X3072Y5087D01*
X3069D01*
X3068Y5085D01*
X3064Y5077D02*
Y5087D01*
X3059D01*
X3058Y5085D01*
Y5084D01*
X3059Y5082D01*
X3064D01*
X3059D01*
X3058Y5080D01*
Y5079D01*
X3059Y5077D01*
X3064D01*
X3038D02*
X3045D01*
Y5087D01*
X3038D01*
X3045Y5082D02*
X3041D01*
X3028Y5077D02*
Y5087D01*
X3033D01*
X3035Y5085D01*
Y5082D01*
X3033Y5080D01*
X3028D01*
X3022Y5090D02*
X3020D01*
X3018Y5089D01*
Y5080D01*
X3023D01*
X3025Y5082D01*
Y5085D01*
X3023Y5087D01*
X3018D01*
X3010D02*
X3013D01*
X3015Y5085D01*
Y5082D01*
X3013Y5080D01*
X3010D01*
X3008Y5082D01*
Y5084D01*
X3015D01*
M02*
