%FSLAX23Y23*%
%MOIN*%
G70*
G01*
G75*
%ADD10C,0.008*%
%ADD11R,0.043X0.039*%
%ADD12R,0.039X0.043*%
%ADD13R,0.039X0.043*%
%ADD14R,0.063X0.071*%
%ADD15R,0.063X0.071*%
%ADD16R,0.016X0.085*%
%ADD17R,0.051X0.059*%
%ADD18R,0.051X0.059*%
%ADD19R,0.057X0.022*%
%ADD20R,0.057X0.022*%
%ADD21R,0.020X0.091*%
%ADD22R,0.012X0.063*%
%ADD23R,0.063X0.012*%
%ADD24R,0.059X0.051*%
%ADD25R,0.016X0.085*%
%ADD26R,0.043X0.142*%
%ADD27R,0.043X0.177*%
%ADD28R,0.043X0.157*%
%ADD29R,0.043X0.118*%
%ADD30R,0.012X0.063*%
%ADD31R,0.063X0.012*%
%ADD32R,0.043X0.039*%
%ADD33R,0.079X0.098*%
%ADD34R,0.020X0.091*%
%ADD35C,0.014*%
%ADD36C,0.010*%
%ADD37C,0.020*%
%ADD38C,0.012*%
%ADD39C,0.020*%
%ADD40C,0.011*%
%ADD41C,0.100*%
%ADD42C,0.024*%
%ADD43C,0.020*%
%ADD44C,0.059*%
%ADD45C,0.010*%
%ADD46C,0.008*%
%ADD47C,0.007*%
%ADD48R,0.051X0.047*%
%ADD49R,0.047X0.051*%
%ADD50R,0.047X0.051*%
%ADD51R,0.071X0.079*%
%ADD52R,0.071X0.079*%
%ADD53R,0.024X0.093*%
%ADD54R,0.059X0.067*%
%ADD55R,0.059X0.067*%
%ADD56R,0.065X0.030*%
%ADD57R,0.065X0.030*%
%ADD58R,0.028X0.099*%
%ADD59R,0.020X0.071*%
%ADD60R,0.071X0.020*%
%ADD61R,0.067X0.059*%
%ADD62R,0.024X0.093*%
%ADD63R,0.051X0.150*%
%ADD64R,0.051X0.185*%
%ADD65R,0.051X0.165*%
%ADD66R,0.051X0.126*%
%ADD67R,0.020X0.071*%
%ADD68R,0.071X0.020*%
%ADD69R,0.051X0.047*%
%ADD70R,0.087X0.106*%
%ADD71R,0.028X0.099*%
%ADD72C,0.108*%
%ADD73C,0.032*%
%ADD74C,0.028*%
%ADD75C,0.067*%
%ADD76C,0.004*%
%ADD77C,0.006*%
%ADD78C,0.001*%
%ADD79C,0.007*%
D36*
X3560Y3415D02*
Y3355D01*
X3590D01*
X3600Y3365D01*
Y3405D01*
X3590Y3415D01*
X3560D01*
X3620Y3395D02*
Y3355D01*
Y3375D01*
X3630Y3385D01*
X3640Y3395D01*
X3650D01*
X3680Y3355D02*
X3700D01*
X3690D01*
Y3395D01*
X3680D01*
X3730Y3355D02*
X3750D01*
X3740D01*
Y3415D01*
X3730D01*
X3780Y3355D02*
X3800D01*
X3790D01*
Y3415D01*
X3780D01*
X3890D02*
Y3355D01*
X3920D01*
X3930Y3365D01*
Y3405D01*
X3920Y3415D01*
X3890D01*
X3950Y3395D02*
Y3355D01*
Y3375D01*
X3960Y3385D01*
X3970Y3395D01*
X3980D01*
X4020D02*
X4040D01*
X4050Y3385D01*
Y3355D01*
X4020D01*
X4010Y3365D01*
X4020Y3375D01*
X4050D01*
X4070Y3395D02*
Y3365D01*
X4080Y3355D01*
X4090Y3365D01*
X4100Y3355D01*
X4110Y3365D01*
Y3395D01*
X4130Y3355D02*
X4150D01*
X4140D01*
Y3395D01*
X4130D01*
X4180Y3355D02*
Y3395D01*
X4210D01*
X4220Y3385D01*
Y3355D01*
X4260Y3335D02*
X4270D01*
X4280Y3345D01*
Y3395D01*
X4250D01*
X4240Y3385D01*
Y3365D01*
X4250Y3355D01*
X4280D01*
X4300D02*
Y3365D01*
X4310D01*
Y3355D01*
X4300D01*
X3740Y3650D02*
X3720Y3640D01*
X3700Y3620D01*
Y3600D01*
X3710Y3590D01*
X3730D01*
X3740Y3600D01*
Y3610D01*
X3730Y3620D01*
X3700D01*
X3800Y3650D02*
X3760D01*
Y3620D01*
X3780Y3630D01*
X3790D01*
X3800Y3620D01*
Y3600D01*
X3790Y3590D01*
X3770D01*
X3760Y3600D01*
X4190Y3590D02*
X4210D01*
X4200D01*
Y3650D01*
X4190Y3640D01*
X4240Y3590D02*
X4260D01*
X4250D01*
Y3650D01*
X4240Y3640D01*
X4290Y3590D02*
Y3600D01*
X4300D01*
Y3590D01*
X4290D01*
X4340Y3640D02*
X4350Y3650D01*
X4370D01*
X4380Y3640D01*
Y3630D01*
X4370Y3620D01*
X4380Y3610D01*
Y3600D01*
X4370Y3590D01*
X4350D01*
X4340Y3600D01*
Y3610D01*
X4350Y3620D01*
X4340Y3630D01*
Y3640D01*
X4350Y3620D02*
X4370D01*
X4400Y3590D02*
X4420D01*
X4410D01*
Y3650D01*
X4400Y3640D01*
X4450Y3590D02*
X4470D01*
X4460D01*
Y3650D01*
X4450Y3640D01*
X4500Y3590D02*
Y3630D01*
X4510D01*
X4520Y3620D01*
Y3590D01*
Y3620D01*
X4530Y3630D01*
X4540Y3620D01*
Y3590D01*
X4560D02*
X4580D01*
X4570D01*
Y3630D01*
X4560D01*
X4610Y3590D02*
X4630D01*
X4620D01*
Y3650D01*
X4610D01*
X4890Y3640D02*
X4900Y3650D01*
X4920D01*
X4930Y3640D01*
Y3600D01*
X4920Y3590D01*
X4900D01*
X4890Y3600D01*
Y3640D01*
X4950Y3590D02*
Y3600D01*
X4960D01*
Y3590D01*
X4950D01*
X5000Y3640D02*
X5010Y3650D01*
X5030D01*
X5040Y3640D01*
Y3630D01*
X5030Y3620D01*
X5020D01*
X5030D01*
X5040Y3610D01*
Y3600D01*
X5030Y3590D01*
X5010D01*
X5000Y3600D01*
X5060Y3590D02*
Y3630D01*
X5070D01*
X5080Y3620D01*
Y3590D01*
Y3620D01*
X5090Y3630D01*
X5100Y3620D01*
Y3590D01*
X5120D02*
Y3630D01*
X5130D01*
X5140Y3620D01*
Y3590D01*
Y3620D01*
X5150Y3630D01*
X5160Y3620D01*
Y3590D01*
X5590D02*
Y3650D01*
X5620D01*
X5630Y3640D01*
Y3620D01*
X5620Y3610D01*
X5590D01*
X5650Y3650D02*
X5690D01*
X5670D01*
Y3590D01*
X5710Y3650D02*
Y3590D01*
Y3620D01*
X5750D01*
Y3650D01*
Y3590D01*
X3740Y3470D02*
X3700D01*
X3740Y3510D01*
Y3520D01*
X3730Y3530D01*
X3710D01*
X3700Y3520D01*
X4190D02*
X4200Y3530D01*
X4220D01*
X4230Y3520D01*
Y3510D01*
X4220Y3500D01*
X4210D01*
X4220D01*
X4230Y3490D01*
Y3480D01*
X4220Y3470D01*
X4200D01*
X4190Y3480D01*
X4290Y3530D02*
X4250D01*
Y3500D01*
X4270Y3510D01*
X4280D01*
X4290Y3500D01*
Y3480D01*
X4280Y3470D01*
X4260D01*
X4250Y3480D01*
X4310Y3470D02*
Y3480D01*
X4320D01*
Y3470D01*
X4310D01*
X4390D02*
Y3530D01*
X4360Y3500D01*
X4400D01*
X4420Y3520D02*
X4430Y3530D01*
X4450D01*
X4460Y3520D01*
Y3510D01*
X4450Y3500D01*
X4440D01*
X4450D01*
X4460Y3490D01*
Y3480D01*
X4450Y3470D01*
X4430D01*
X4420Y3480D01*
X4480Y3520D02*
X4490Y3530D01*
X4510D01*
X4520Y3520D01*
Y3510D01*
X4510Y3500D01*
X4500D01*
X4510D01*
X4520Y3490D01*
Y3480D01*
X4510Y3470D01*
X4490D01*
X4480Y3480D01*
X4540Y3470D02*
Y3510D01*
X4550D01*
X4560Y3500D01*
Y3470D01*
Y3500D01*
X4570Y3510D01*
X4580Y3500D01*
Y3470D01*
X4600D02*
X4620D01*
X4610D01*
Y3510D01*
X4600D01*
X4650Y3470D02*
X4670D01*
X4660D01*
Y3530D01*
X4650D01*
X4890Y3520D02*
X4900Y3530D01*
X4920D01*
X4930Y3520D01*
Y3480D01*
X4920Y3470D01*
X4900D01*
X4890Y3480D01*
Y3520D01*
X4950Y3470D02*
Y3480D01*
X4960D01*
Y3470D01*
X4950D01*
X5000Y3480D02*
X5010Y3470D01*
X5030D01*
X5040Y3480D01*
Y3520D01*
X5030Y3530D01*
X5010D01*
X5000Y3520D01*
Y3510D01*
X5010Y3500D01*
X5040D01*
X5060Y3470D02*
Y3510D01*
X5070D01*
X5080Y3500D01*
Y3470D01*
Y3500D01*
X5090Y3510D01*
X5100Y3500D01*
Y3470D01*
X5120D02*
Y3510D01*
X5130D01*
X5140Y3500D01*
Y3470D01*
Y3500D01*
X5150Y3510D01*
X5160Y3500D01*
Y3470D01*
X5590D02*
Y3530D01*
X5630Y3470D01*
Y3530D01*
X5650Y3470D02*
Y3530D01*
X5680D01*
X5690Y3520D01*
Y3500D01*
X5680Y3490D01*
X5650D01*
X5710Y3530D02*
X5750D01*
X5730D01*
Y3470D01*
X5770Y3530D02*
Y3470D01*
Y3500D01*
X5810D01*
Y3530D01*
Y3470D01*
X3700Y3350D02*
X3720D01*
X3710D01*
Y3410D01*
X3700Y3400D01*
X4190Y3350D02*
X4210D01*
X4200D01*
Y3410D01*
X4190Y3400D01*
X4240D02*
X4250Y3410D01*
X4270D01*
X4280Y3400D01*
Y3360D01*
X4270Y3350D01*
X4250D01*
X4240Y3360D01*
Y3400D01*
X4300D02*
X4310Y3410D01*
X4330D01*
X4340Y3400D01*
Y3360D01*
X4330Y3350D01*
X4310D01*
X4300Y3360D01*
Y3400D01*
X4360Y3350D02*
Y3390D01*
X4370D01*
X4380Y3380D01*
Y3350D01*
Y3380D01*
X4390Y3390D01*
X4400Y3380D01*
Y3350D01*
X4420D02*
X4440D01*
X4430D01*
Y3390D01*
X4420D01*
X4470Y3350D02*
X4490D01*
X4480D01*
Y3410D01*
X4470D01*
X4930Y3350D02*
X4890D01*
X4930Y3390D01*
Y3400D01*
X4920Y3410D01*
X4900D01*
X4890Y3400D01*
X4950Y3350D02*
Y3360D01*
X4960D01*
Y3350D01*
X4950D01*
X5040Y3410D02*
X5000D01*
Y3380D01*
X5020Y3390D01*
X5030D01*
X5040Y3380D01*
Y3360D01*
X5030Y3350D01*
X5010D01*
X5000Y3360D01*
X5090Y3350D02*
Y3410D01*
X5060Y3380D01*
X5100D01*
X5120Y3350D02*
Y3390D01*
X5130D01*
X5140Y3380D01*
Y3350D01*
Y3380D01*
X5150Y3390D01*
X5160Y3380D01*
Y3350D01*
X5180D02*
Y3390D01*
X5190D01*
X5200Y3380D01*
Y3350D01*
Y3380D01*
X5210Y3390D01*
X5220Y3380D01*
Y3350D01*
X5590D02*
Y3410D01*
X5630Y3350D01*
Y3410D01*
X5650Y3350D02*
Y3410D01*
X5680D01*
X5690Y3400D01*
Y3380D01*
X5680Y3370D01*
X5650D01*
X5710Y3410D02*
X5750D01*
X5730D01*
Y3350D01*
X5770Y3410D02*
Y3350D01*
Y3380D01*
X5810D01*
Y3410D01*
Y3350D01*
X3740Y3290D02*
X3720Y3280D01*
X3700Y3260D01*
Y3240D01*
X3710Y3230D01*
X3730D01*
X3740Y3240D01*
Y3250D01*
X3730Y3260D01*
X3700D01*
X3760Y3280D02*
X3770Y3290D01*
X3790D01*
X3800Y3280D01*
Y3270D01*
X3790Y3260D01*
X3800Y3250D01*
Y3240D01*
X3790Y3230D01*
X3770D01*
X3760Y3240D01*
Y3250D01*
X3770Y3260D01*
X3760Y3270D01*
Y3280D01*
X3770Y3260D02*
X3790D01*
X4190Y3290D02*
X4230D01*
X4210D01*
Y3230D01*
X4260D02*
X4280D01*
X4290Y3240D01*
Y3260D01*
X4280Y3270D01*
X4260D01*
X4250Y3260D01*
Y3240D01*
X4260Y3230D01*
X4320Y3280D02*
Y3270D01*
X4310D01*
X4330D01*
X4320D01*
Y3240D01*
X4330Y3230D01*
X4370Y3270D02*
X4390D01*
X4400Y3260D01*
Y3230D01*
X4370D01*
X4360Y3240D01*
X4370Y3250D01*
X4400D01*
X4420Y3230D02*
X4440D01*
X4430D01*
Y3290D01*
X4420D01*
D78*
X2565Y3570D02*
Y3610D01*
X2605D01*
Y3570D01*
X2565D01*
X2605Y4165D02*
X2585Y4205D01*
X2625D01*
X2605Y4165D01*
X2275Y3885D02*
X2255Y3925D01*
X2295D01*
X2275Y3885D01*
X2401D02*
X2381Y3925D01*
X2421D01*
X2401Y3885D01*
X2605Y4020D02*
X2585Y4060D01*
X2625D01*
X2605Y4020D01*
X2575Y3965D02*
X2555Y4005D01*
X2595D01*
X2575Y3965D01*
X2640Y3880D02*
X2620Y3920D01*
X2660D01*
X2640Y3880D01*
X2595D02*
X2575Y3920D01*
X2615D01*
X2595Y3880D01*
X2360Y4155D02*
X2340Y4195D01*
X2380D01*
X2360Y4155D01*
Y4210D02*
X2340Y4250D01*
X2380D01*
X2360Y4210D01*
X2618Y4319D02*
X2598Y4359D01*
X2638D01*
X2618Y4319D01*
X2540Y4240D02*
X2520Y4280D01*
X2560D01*
X2540Y4240D01*
X2697Y4300D02*
X2677Y4340D01*
X2717D01*
X2697Y4300D01*
X2421Y4240D02*
X2401Y4280D01*
X2441D01*
X2421Y4240D01*
X2605Y4120D02*
X2585Y4160D01*
X2625D01*
X2605Y4120D01*
X2770Y4530D02*
X2750Y4570D01*
X2790D01*
X2770Y4530D01*
X2695Y4120D02*
X2675Y4160D01*
X2715D01*
X2695Y4120D01*
X2920Y4118D02*
X2900Y4158D01*
X2940D01*
X2920Y4118D01*
X2421Y4319D02*
X2401Y4359D01*
X2441D01*
X2421Y4319D01*
X2305Y4315D02*
X2285Y4355D01*
X2325D01*
X2305Y4315D01*
X2270Y4285D02*
X2250Y4325D01*
X2290D01*
X2270Y4285D01*
Y4155D02*
X2250Y4195D01*
X2290D01*
X2270Y4155D01*
Y4110D02*
X2250Y4150D01*
X2290D01*
X2270Y4110D01*
X3098Y3782D02*
X3078Y3822D01*
X3118D01*
X3098Y3782D01*
X2925Y3923D02*
X2905Y3963D01*
X2945D01*
X2925Y3923D01*
X2685Y3920D02*
X2665Y3960D01*
X2705D01*
X2685Y3920D01*
X2605Y4210D02*
X2585Y4250D01*
X2625D01*
X2605Y4210D01*
X2930Y4273D02*
X2910Y4313D01*
X2950D01*
X2930Y4273D01*
Y4540D02*
X2910Y4580D01*
X2950D01*
X2930Y4540D01*
X3015Y3960D02*
X2995Y4000D01*
X3035D01*
X3015Y3960D01*
X3100Y4055D02*
X3080Y4095D01*
X3120D01*
X3100Y4055D01*
X3020Y4310D02*
X3000Y4350D01*
X3040D01*
X3020Y4310D01*
X3095Y4400D02*
X3075Y4440D01*
X3115D01*
X3095Y4400D01*
X2471Y4791D02*
X2451Y4831D01*
X2491D01*
X2471Y4791D01*
X3065Y4130D02*
X3045Y4170D01*
X3085D01*
X3065Y4130D01*
X2180Y4525D02*
X2160Y4565D01*
X2200D01*
X2180Y4525D01*
X2430Y4530D02*
X2410Y4570D01*
X2450D01*
X2430Y4530D01*
X2493Y3680D02*
X2473Y3720D01*
X2513D01*
X2493Y3680D01*
X2773D02*
X2753Y3720D01*
X2793D01*
X2773Y3680D01*
X2040Y4193D02*
X2020Y4233D01*
X2060D01*
X2040Y4193D01*
Y3987D02*
X2020Y4027D01*
X2060D01*
X2040Y3987D01*
X2401Y4465D02*
X2381Y4505D01*
X2421D01*
X2401Y4465D01*
X2280Y3205D02*
X2260Y3245D01*
X2300D01*
X2280Y3205D01*
X2886Y3175D02*
X2866Y3215D01*
X2906D01*
X2886Y3175D01*
X2831Y3369D02*
X2811Y3409D01*
X2851D01*
X2831Y3369D01*
X2390D02*
X2370Y3409D01*
X2410D01*
X2390Y3369D01*
X2360Y4970D02*
X2340Y5010D01*
X2380D01*
X2360Y4970D01*
X2660D02*
X2640Y5010D01*
X2680D01*
X2660Y4970D01*
X2820Y4720D02*
X2800Y4760D01*
X2840D01*
X2820Y4720D01*
Y4770D02*
X2800Y4810D01*
X2840D01*
X2820Y4770D01*
X3030D02*
X3010Y4810D01*
X3050D01*
X3030Y4770D01*
Y4720D02*
X3010Y4760D01*
X3050D01*
X3030Y4720D01*
X2835Y4965D02*
X2815Y5005D01*
X2855D01*
X2835Y4965D01*
X3100Y4855D02*
X3080Y4895D01*
X3120D01*
X3100Y4855D01*
X2925Y4965D02*
X2905Y5005D01*
X2945D01*
X2925Y4965D01*
X2350Y4780D02*
X2330Y4820D01*
X2370D01*
X2350Y4780D01*
X2310D02*
X2290Y4820D01*
X2330D01*
X2310Y4780D01*
X2515Y4790D02*
X2495Y4830D01*
X2535D01*
X2515Y4790D01*
X3058Y4468D02*
X3038Y4508D01*
X3078D01*
X3058Y4468D01*
X2660Y4580D02*
X2640Y4620D01*
X2680D01*
X2660Y4580D01*
X2700D02*
X2680Y4620D01*
X2720D01*
X2700Y4580D01*
X2740D02*
X2720Y4620D01*
X2760D01*
X2740Y4580D01*
X2780D02*
X2760Y4620D01*
X2800D01*
X2780Y4580D01*
X2825D02*
X2805Y4620D01*
X2845D01*
X2825Y4580D01*
X2875D02*
X2855Y4620D01*
X2895D01*
X2875Y4580D01*
X2155Y4930D02*
X2135Y4970D01*
X2175D01*
X2155Y4930D01*
X3490Y3600D02*
X3470Y3640D01*
X3510D01*
X3490Y3600D01*
X3470Y3360D02*
Y3400D01*
X3510D01*
Y3360D01*
X3470D01*
D79*
X3032Y4863D02*
G03*
X3032Y4863I-20J0D01*
G01*
X2858D02*
G03*
X2858Y4863I-20J0D01*
G01*
X3510Y3500D02*
G03*
X3510Y3500I-20J0D01*
G01*
M02*
