%FSLAX23Y23*%
%MOIN*%
G70*
G01*
G75*
%ADD10C,0.008*%
%ADD11R,0.043X0.039*%
%ADD12R,0.039X0.043*%
%ADD13R,0.039X0.043*%
%ADD14R,0.063X0.071*%
%ADD15R,0.063X0.071*%
%ADD16R,0.016X0.085*%
%ADD17R,0.051X0.059*%
%ADD18R,0.051X0.059*%
%ADD19R,0.057X0.022*%
%ADD20R,0.057X0.022*%
%ADD21R,0.020X0.091*%
%ADD22R,0.012X0.063*%
%ADD23R,0.063X0.012*%
%ADD24R,0.059X0.051*%
%ADD25R,0.016X0.085*%
%ADD26R,0.043X0.142*%
%ADD27R,0.043X0.177*%
%ADD28R,0.043X0.157*%
%ADD29R,0.043X0.118*%
%ADD30R,0.012X0.063*%
%ADD31R,0.063X0.012*%
%ADD32R,0.043X0.039*%
%ADD33R,0.079X0.098*%
%ADD34R,0.020X0.091*%
%ADD35C,0.014*%
%ADD36C,0.010*%
%ADD37C,0.020*%
%ADD38C,0.012*%
%ADD39C,0.020*%
%ADD40C,0.011*%
%ADD41C,0.100*%
%ADD42C,0.024*%
%ADD43C,0.020*%
%ADD44C,0.059*%
%ADD45C,0.010*%
%ADD46C,0.008*%
%ADD47C,0.007*%
D11*
X2770Y4505D02*
D03*
X2704D02*
D03*
X2987Y4420D02*
D03*
X3053D02*
D03*
X3058Y4075D02*
D03*
X2992D02*
D03*
X2471Y4990D02*
D03*
X2405D02*
D03*
X2549D02*
D03*
X2615D02*
D03*
X2707Y3740D02*
D03*
X2559D02*
D03*
D12*
X2875Y4138D02*
D03*
X2080Y4213D02*
D03*
Y4007D02*
D03*
D13*
X2875Y4072D02*
D03*
X2080Y4147D02*
D03*
X2180Y4653D02*
D03*
Y4587D02*
D03*
X2080Y4073D02*
D03*
X2180Y4486D02*
D03*
Y4420D02*
D03*
D14*
X2988Y3860D02*
D03*
X2955Y4210D02*
D03*
X3065D02*
D03*
D15*
X3098Y3860D02*
D03*
X2987Y4560D02*
D03*
X3097D02*
D03*
D16*
X2471Y4886D02*
D03*
X2292Y4628D02*
D03*
X2318D02*
D03*
X2343D02*
D03*
X2369D02*
D03*
X2395D02*
D03*
X2420D02*
D03*
X2446D02*
D03*
X2471D02*
D03*
X2497D02*
D03*
X2523D02*
D03*
X2548D02*
D03*
X2574D02*
D03*
X2599D02*
D03*
X2267Y4886D02*
D03*
X2292D02*
D03*
X2318D02*
D03*
X2343D02*
D03*
X2369D02*
D03*
X2395D02*
D03*
X2420D02*
D03*
X2446D02*
D03*
X2497D02*
D03*
X2523D02*
D03*
X2548D02*
D03*
X2574D02*
D03*
X2599D02*
D03*
D17*
X3097Y4655D02*
D03*
D18*
X3023D02*
D03*
X2080Y5000D02*
D03*
X2154D02*
D03*
D19*
X2988Y3943D02*
D03*
Y4017D02*
D03*
X3072D02*
D03*
Y3980D02*
D03*
X2988Y4293D02*
D03*
Y4367D02*
D03*
X3072D02*
D03*
Y4330D02*
D03*
D20*
X3072Y3943D02*
D03*
Y4293D02*
D03*
D21*
X2988Y4761D02*
D03*
D22*
X2657Y4419D02*
D03*
X2263Y3821D02*
D03*
X2283D02*
D03*
X2303D02*
D03*
X2323D02*
D03*
X2342D02*
D03*
X2362D02*
D03*
X2382D02*
D03*
X2421D02*
D03*
X2480D02*
D03*
X2519D02*
D03*
X2539D02*
D03*
X2559D02*
D03*
X2578D02*
D03*
X2598D02*
D03*
X2618D02*
D03*
X2637D02*
D03*
X2657D02*
D03*
X2677D02*
D03*
X2697D02*
D03*
X2716D02*
D03*
X2263Y4419D02*
D03*
X2283D02*
D03*
X2303D02*
D03*
X2323D02*
D03*
X2342D02*
D03*
X2362D02*
D03*
X2421D02*
D03*
X2441D02*
D03*
X2460D02*
D03*
X2480D02*
D03*
X2500D02*
D03*
X2519D02*
D03*
X2539D02*
D03*
X2559D02*
D03*
X2578D02*
D03*
X2598D02*
D03*
X2637D02*
D03*
X2677D02*
D03*
X2441Y3821D02*
D03*
D23*
X2779Y4337D02*
D03*
Y4317D02*
D03*
Y4297D02*
D03*
X2181D02*
D03*
X2779Y3884D02*
D03*
Y3903D02*
D03*
Y3923D02*
D03*
Y3943D02*
D03*
Y3963D02*
D03*
Y3982D02*
D03*
Y4002D02*
D03*
Y4022D02*
D03*
Y4041D02*
D03*
Y4061D02*
D03*
Y4081D02*
D03*
Y4100D02*
D03*
Y4159D02*
D03*
Y4179D02*
D03*
Y4199D02*
D03*
Y4218D02*
D03*
Y4238D02*
D03*
Y4258D02*
D03*
Y4277D02*
D03*
Y4356D02*
D03*
X2181Y3884D02*
D03*
Y3903D02*
D03*
Y3923D02*
D03*
Y3943D02*
D03*
Y3963D02*
D03*
Y3982D02*
D03*
Y4002D02*
D03*
Y4022D02*
D03*
Y4041D02*
D03*
Y4061D02*
D03*
Y4081D02*
D03*
Y4100D02*
D03*
Y4120D02*
D03*
X2181Y4140D02*
D03*
X2181Y4179D02*
D03*
Y4199D02*
D03*
Y4218D02*
D03*
Y4238D02*
D03*
Y4258D02*
D03*
Y4277D02*
D03*
Y4317D02*
D03*
Y4337D02*
D03*
Y4356D02*
D03*
D24*
X2080Y4897D02*
D03*
Y4823D02*
D03*
D25*
X2267Y4628D02*
D03*
D26*
X2886Y3293D02*
D03*
D27*
X2831Y3110D02*
D03*
X2390Y3112D02*
D03*
D28*
X2721Y3120D02*
D03*
X2666Y3285D02*
D03*
X2611Y3120D02*
D03*
X2556Y3285D02*
D03*
X2445D02*
D03*
X2335D02*
D03*
X2500Y3120D02*
D03*
X2776Y3285D02*
D03*
D29*
X2280Y3142D02*
D03*
D30*
X2244Y3821D02*
D03*
X2401D02*
D03*
X2460D02*
D03*
X2500D02*
D03*
X2244Y4419D02*
D03*
X2382D02*
D03*
X2401D02*
D03*
X2618D02*
D03*
X2697D02*
D03*
X2716D02*
D03*
D31*
X2779Y4120D02*
D03*
Y4140D02*
D03*
X2181Y4159D02*
D03*
D32*
X2773Y3740D02*
D03*
X2493D02*
D03*
D33*
X2750Y4765D02*
D03*
X3100D02*
D03*
Y4981D02*
D03*
X2750D02*
D03*
D34*
X2862Y4761D02*
D03*
X2894D02*
D03*
X2925D02*
D03*
X2956D02*
D03*
M02*
