%FSLAX23Y23*%
%MOIN*%
G70*
G01*
G75*
%ADD10C,0.008*%
%ADD11R,0.043X0.039*%
%ADD12R,0.039X0.043*%
%ADD13R,0.039X0.043*%
%ADD14R,0.063X0.071*%
%ADD15R,0.063X0.071*%
%ADD16R,0.016X0.085*%
%ADD17R,0.051X0.059*%
%ADD18R,0.051X0.059*%
%ADD19R,0.057X0.022*%
%ADD20R,0.057X0.022*%
%ADD21R,0.020X0.091*%
%ADD22R,0.012X0.063*%
%ADD23R,0.063X0.012*%
%ADD24R,0.059X0.051*%
%ADD25R,0.016X0.085*%
%ADD26R,0.043X0.142*%
%ADD27R,0.043X0.177*%
%ADD28R,0.043X0.157*%
%ADD29R,0.043X0.118*%
%ADD30R,0.012X0.063*%
%ADD31R,0.063X0.012*%
%ADD32R,0.043X0.039*%
%ADD33R,0.079X0.098*%
%ADD34R,0.020X0.091*%
%ADD35C,0.014*%
%ADD36C,0.010*%
%ADD37C,0.020*%
%ADD38C,0.012*%
%ADD39C,0.020*%
%ADD40C,0.011*%
%ADD41C,0.100*%
%ADD42C,0.024*%
%ADD43C,0.020*%
%ADD44C,0.059*%
%ADD45C,0.010*%
%ADD46C,0.008*%
%ADD47C,0.007*%
%ADD48R,0.051X0.047*%
%ADD49R,0.047X0.051*%
%ADD50R,0.047X0.051*%
%ADD51R,0.071X0.079*%
%ADD52R,0.071X0.079*%
%ADD53R,0.024X0.093*%
%ADD54R,0.059X0.067*%
%ADD55R,0.059X0.067*%
%ADD56R,0.065X0.030*%
%ADD57R,0.065X0.030*%
%ADD58R,0.028X0.099*%
%ADD59R,0.020X0.071*%
%ADD60R,0.071X0.020*%
%ADD61R,0.067X0.059*%
%ADD62R,0.024X0.093*%
%ADD63R,0.051X0.150*%
%ADD64R,0.051X0.185*%
%ADD65R,0.051X0.165*%
%ADD66R,0.051X0.126*%
%ADD67R,0.020X0.071*%
%ADD68R,0.071X0.020*%
%ADD69R,0.051X0.047*%
%ADD70R,0.087X0.106*%
%ADD71R,0.028X0.099*%
%ADD72C,0.108*%
%ADD73C,0.032*%
%ADD74C,0.028*%
D48*
X2770Y4505D02*
D03*
X2704D02*
D03*
X2987Y4420D02*
D03*
X3053D02*
D03*
X3058Y4075D02*
D03*
X2992D02*
D03*
X2471Y4990D02*
D03*
X2405D02*
D03*
X2549D02*
D03*
X2615D02*
D03*
X2707Y3740D02*
D03*
X2559D02*
D03*
D49*
X2875Y4138D02*
D03*
X2080Y4213D02*
D03*
Y4007D02*
D03*
D50*
X2875Y4072D02*
D03*
X2080Y4147D02*
D03*
X2180Y4653D02*
D03*
Y4587D02*
D03*
X2080Y4073D02*
D03*
X2180Y4486D02*
D03*
Y4420D02*
D03*
D51*
X2988Y3860D02*
D03*
X2955Y4210D02*
D03*
X3065D02*
D03*
D52*
X3098Y3860D02*
D03*
X2987Y4560D02*
D03*
X3097D02*
D03*
D53*
X2471Y4886D02*
D03*
X2292Y4628D02*
D03*
X2318D02*
D03*
X2343D02*
D03*
X2369D02*
D03*
X2395D02*
D03*
X2420D02*
D03*
X2446D02*
D03*
X2471D02*
D03*
X2497D02*
D03*
X2523D02*
D03*
X2548D02*
D03*
X2574D02*
D03*
X2599D02*
D03*
X2267Y4886D02*
D03*
X2292D02*
D03*
X2318D02*
D03*
X2343D02*
D03*
X2369D02*
D03*
X2395D02*
D03*
X2420D02*
D03*
X2446D02*
D03*
X2497D02*
D03*
X2523D02*
D03*
X2548D02*
D03*
X2574D02*
D03*
X2599D02*
D03*
D54*
X3097Y4655D02*
D03*
D55*
X3023D02*
D03*
X2080Y5000D02*
D03*
X2154D02*
D03*
D56*
X2988Y3943D02*
D03*
Y4017D02*
D03*
X3072D02*
D03*
Y3980D02*
D03*
X2988Y4293D02*
D03*
Y4367D02*
D03*
X3072D02*
D03*
Y4330D02*
D03*
D57*
X3072Y3943D02*
D03*
Y4293D02*
D03*
D58*
X2988Y4761D02*
D03*
D59*
X2657Y4419D02*
D03*
X2263Y3821D02*
D03*
X2283D02*
D03*
X2303D02*
D03*
X2323D02*
D03*
X2342D02*
D03*
X2362D02*
D03*
X2382D02*
D03*
X2421D02*
D03*
X2480D02*
D03*
X2519D02*
D03*
X2539D02*
D03*
X2559D02*
D03*
X2578D02*
D03*
X2598D02*
D03*
X2618D02*
D03*
X2637D02*
D03*
X2657D02*
D03*
X2677D02*
D03*
X2697D02*
D03*
X2716D02*
D03*
X2263Y4419D02*
D03*
X2283D02*
D03*
X2303D02*
D03*
X2323D02*
D03*
X2342D02*
D03*
X2362D02*
D03*
X2421D02*
D03*
X2441D02*
D03*
X2460D02*
D03*
X2480D02*
D03*
X2500D02*
D03*
X2519D02*
D03*
X2539D02*
D03*
X2559D02*
D03*
X2578D02*
D03*
X2598D02*
D03*
X2637D02*
D03*
X2677D02*
D03*
X2441Y3821D02*
D03*
D60*
X2779Y4337D02*
D03*
Y4317D02*
D03*
Y4297D02*
D03*
X2181D02*
D03*
X2779Y3884D02*
D03*
Y3903D02*
D03*
Y3923D02*
D03*
Y3943D02*
D03*
Y3963D02*
D03*
Y3982D02*
D03*
Y4002D02*
D03*
Y4022D02*
D03*
Y4041D02*
D03*
Y4061D02*
D03*
Y4081D02*
D03*
Y4100D02*
D03*
Y4159D02*
D03*
Y4179D02*
D03*
Y4199D02*
D03*
Y4218D02*
D03*
Y4238D02*
D03*
Y4258D02*
D03*
Y4277D02*
D03*
Y4356D02*
D03*
X2181Y3884D02*
D03*
Y3903D02*
D03*
Y3923D02*
D03*
Y3943D02*
D03*
Y3963D02*
D03*
Y3982D02*
D03*
Y4002D02*
D03*
Y4022D02*
D03*
Y4041D02*
D03*
Y4061D02*
D03*
Y4081D02*
D03*
Y4100D02*
D03*
Y4120D02*
D03*
X2181Y4140D02*
D03*
X2181Y4179D02*
D03*
Y4199D02*
D03*
Y4218D02*
D03*
Y4238D02*
D03*
Y4258D02*
D03*
Y4277D02*
D03*
Y4317D02*
D03*
Y4337D02*
D03*
Y4356D02*
D03*
D61*
X2080Y4897D02*
D03*
Y4823D02*
D03*
D62*
X2267Y4628D02*
D03*
D63*
X2886Y3293D02*
D03*
D64*
X2831Y3110D02*
D03*
X2390Y3112D02*
D03*
D65*
X2721Y3120D02*
D03*
X2666Y3285D02*
D03*
X2611Y3120D02*
D03*
X2556Y3285D02*
D03*
X2445D02*
D03*
X2335D02*
D03*
X2500Y3120D02*
D03*
X2776Y3285D02*
D03*
D66*
X2280Y3142D02*
D03*
D67*
X2244Y3821D02*
D03*
X2401D02*
D03*
X2460D02*
D03*
X2500D02*
D03*
X2244Y4419D02*
D03*
X2382D02*
D03*
X2401D02*
D03*
X2618D02*
D03*
X2697D02*
D03*
X2716D02*
D03*
D68*
X2779Y4120D02*
D03*
Y4140D02*
D03*
X2181Y4159D02*
D03*
D69*
X2773Y3740D02*
D03*
X2493D02*
D03*
D70*
X2750Y4765D02*
D03*
X3100D02*
D03*
Y4981D02*
D03*
X2750D02*
D03*
D71*
X2862Y4761D02*
D03*
X2894D02*
D03*
X2925D02*
D03*
X2956D02*
D03*
D72*
X2585Y3590D02*
D03*
D73*
X3012Y4863D02*
D03*
X2838D02*
D03*
D74*
X2605Y4185D02*
D03*
X2275Y3905D02*
D03*
X2401D02*
D03*
X2605Y4040D02*
D03*
X2575Y3985D02*
D03*
X2640Y3900D02*
D03*
X2595D02*
D03*
X2360Y4175D02*
D03*
Y4230D02*
D03*
X2618Y4339D02*
D03*
X2540Y4260D02*
D03*
X2697Y4320D02*
D03*
X2421Y4260D02*
D03*
X2605Y4140D02*
D03*
X2770Y4550D02*
D03*
X2695Y4140D02*
D03*
X2920Y4138D02*
D03*
X2421Y4339D02*
D03*
X2305Y4335D02*
D03*
X2270Y4305D02*
D03*
Y4175D02*
D03*
Y4130D02*
D03*
X3098Y3802D02*
D03*
X2925Y3943D02*
D03*
X2685Y3940D02*
D03*
X2605Y4230D02*
D03*
X2930Y4293D02*
D03*
Y4560D02*
D03*
X3015Y3980D02*
D03*
X3100Y4075D02*
D03*
X3020Y4330D02*
D03*
X3095Y4420D02*
D03*
X2471Y4811D02*
D03*
X3065Y4150D02*
D03*
X2180Y4545D02*
D03*
X2430Y4550D02*
D03*
X2493Y3700D02*
D03*
X2773D02*
D03*
X2040Y4213D02*
D03*
Y4007D02*
D03*
X2401Y4485D02*
D03*
X2280Y3225D02*
D03*
X2886Y3195D02*
D03*
X2831Y3389D02*
D03*
X2390D02*
D03*
X2360Y4990D02*
D03*
X2660D02*
D03*
X2820Y4740D02*
D03*
Y4790D02*
D03*
X3030D02*
D03*
Y4740D02*
D03*
X2835Y4985D02*
D03*
X3100Y4875D02*
D03*
X2925Y4985D02*
D03*
X2350Y4800D02*
D03*
X2310D02*
D03*
X2515Y4810D02*
D03*
X3058Y4488D02*
D03*
X2660Y4600D02*
D03*
X2700D02*
D03*
X2740D02*
D03*
X2780D02*
D03*
X2825D02*
D03*
X2875D02*
D03*
X2155Y4950D02*
D03*
M02*
